<?xml version="1.0" encoding="UTF-8" standalone="no"?>
<!-- Created with Inkscape (http://www.inkscape.org/) -->

<svg
   xmlns:dc="http://purl.org/dc/elements/1.1/"
   xmlns:cc="http://creativecommons.org/ns#"
   xmlns:rdf="http://www.w3.org/1999/02/22-rdf-syntax-ns#"
   xmlns:svg="http://www.w3.org/2000/svg"
   xmlns="http://www.w3.org/2000/svg"
   xmlns:xlink="http://www.w3.org/1999/xlink"
   xmlns:sodipodi="http://sodipodi.sourceforge.net/DTD/sodipodi-0.dtd"
   xmlns:inkscape="http://www.inkscape.org/namespaces/inkscape"
   width="50mm"
   height="50mm"
   viewBox="0 0 50 50"
   version="1.1"
   id="svg4789"
   inkscape:version="0.92.1 r"
   sodipodi:docname="12.svg">
  <defs
     id="defs4783">
    <linearGradient
       id="linearGradient4855"
       inkscape:collect="always">
      <stop
         id="stop4851"
         offset="0"
         style="stop-color:#73bbea;stop-opacity:1" />
      <stop
         id="stop4853"
         offset="1"
         style="stop-color:#bde8ff;stop-opacity:0;" />
    </linearGradient>
    <clipPath
       id="clipPath-033233189">
      <g
         transform="translate(0,-1004.4)"
         id="g4">
        <path
           d="m -24,13 c 0,1.105 -0.672,2 -1.5,2 -0.828,0 -1.5,-0.895 -1.5,-2 0,-1.105 0.672,-2 1.5,-2 0.828,0 1.5,0.895 1.5,2 z"
           transform="matrix(15.333,0,0,11.5,415,878.86)"
           id="path2"
           inkscape:connector-curvature="0"
           style="fill:#1890d0" />
      </g>
    </clipPath>
    <linearGradient
       inkscape:collect="always"
       id="linearGradient5011">
      <stop
         style="stop-color:#bde8ff;stop-opacity:1;"
         offset="0"
         id="stop5007" />
      <stop
         style="stop-color:#bde8ff;stop-opacity:0;"
         offset="1"
         id="stop5009" />
    </linearGradient>
    <linearGradient
       inkscape:collect="always"
       xlink:href="#linearGradient5011"
       id="linearGradient4806"
       gradientUnits="userSpaceOnUse"
       x1="-1416.806"
       y1="-772.53204"
       x2="-1411.4478"
       y2="-851.63068" />
    <linearGradient
       inkscape:collect="always"
       xlink:href="#linearGradient4855"
       id="linearGradient4849"
       gradientUnits="userSpaceOnUse"
       x1="22.852594"
       y1="250.35117"
       x2="25.811058"
       y2="315.0304"
       gradientTransform="matrix(3.7795276,0,0,3.7795276,0,-933.5433)" />
  </defs>
  <sodipodi:namedview
     id="base"
     pagecolor="#ffffff"
     bordercolor="#666666"
     borderopacity="1.0"
     inkscape:pageopacity="0.0"
     inkscape:pageshadow="2"
     inkscape:zoom="0.35"
     inkscape:cx="264.81302"
     inkscape:cy="-11.753481"
     inkscape:document-units="mm"
     inkscape:current-layer="layer1"
     showgrid="false" />
  <metadata
     id="metadata4786">
    <rdf:RDF>
      <cc:Work
         rdf:about="">
        <dc:format>image/svg+xml</dc:format>
        <dc:type
           rdf:resource="http://purl.org/dc/dcmitype/StillImage" />
        <dc:title></dc:title>
      </cc:Work>
    </rdf:RDF>
  </metadata>
  <g
     inkscape:label="Layer 1"
     inkscape:groupmode="layer"
     id="layer1"
     transform="translate(0,-247)">
    <rect
       style="opacity:1;fill:#ebf5ef;fill-opacity:1;fill-rule:evenodd;stroke:none;stroke-width:0.27393457;stroke-linecap:round;stroke-linejoin:bevel;stroke-miterlimit:4;stroke-dasharray:none;stroke-dashoffset:0;stroke-opacity:1"
       id="rect4497-3-6-3"
       width="48.661552"
       height="48.661552"
       x="0.66922379"
       y="247.66922"
       ry="9.6193056" />
    <path
       style="opacity:1;fill:url(#linearGradient4849);fill-opacity:1;fill-rule:evenodd;stroke:none;stroke-width:1.03534329;stroke-linecap:round;stroke-linejoin:bevel;stroke-miterlimit:4;stroke-dasharray:none;stroke-dashoffset:0;stroke-opacity:1"
       d="M 38.886719 2.5292969 C 18.745256 2.5292969 2.5292969 18.745256 2.5292969 38.886719 L 2.5292969 125.59375 C 5.1216227 127.36595 7.705862 129.0448 10.277344 130.56836 C 13.088043 132.23365 15.887183 133.75536 18.671875 135.14062 C 18.692155 135.15071 18.712144 135.15789 18.732422 135.16797 C 19.16544 134.90579 19.545478 134.59415 19.982422 134.33594 C 24.304728 131.78163 28.819045 129.42204 33.494141 127.27148 C 38.169236 125.12092 43.005601 123.17872 47.976562 121.46094 C 52.947524 119.74315 58.051814 118.24817 63.261719 116.99219 C 68.471623 115.7362 73.787763 114.71828 79.179688 113.95312 C 84.571612 113.18797 90.039619 112.67694 95.556641 112.43164 C 101.07366 112.18634 106.63941 112.20814 112.22461 112.51172 C 117.8098 112.8153 123.41527 113.39976 129.01172 114.28125 C 134.60816 115.16274 140.19532 116.3397 145.74609 117.82812 C 151.29687 119.31655 156.81159 121.11584 162.25977 123.24023 C 164.47482 124.10395 166.66985 125.06099 168.86133 126.0332 C 169.62308 125.87199 170.42728 125.63497 171.18164 125.48828 C 175.12587 124.72133 178.96868 124.16011 182.70508 123.875 C 183.98965 123.77698 185.18799 123.92038 186.44727 123.89062 L 186.44727 38.886719 C 186.44727 18.745256 170.23131 2.5292969 150.08984 2.5292969 L 38.886719 2.5292969 z "
       id="rect4497-3-6"
       transform="matrix(0.26458333,0,0,0.26458333,0,247)" />
    <path
       style="fill:#ffffff;stroke:none;stroke-width:0.26458332px;stroke-linecap:butt;stroke-linejoin:miter;stroke-opacity:1"
       d="m 18.342196,265.91462 0.41208,1.77045 1.64835,-0.59524 -0.41209,-1.81623 z"
       id="path4547-1"
       inkscape:connector-curvature="0" />
    <path
       style="fill:#ffffff;stroke:none;stroke-width:0.26458332px;stroke-linecap:butt;stroke-linejoin:miter;stroke-opacity:1"
       d="m 16.415106,266.64693 0.4121,1.77045 1.64833,-0.59524 -0.41209,-1.81623 z"
       id="path4547-3-9"
       inkscape:connector-curvature="0" />
    <path
       style="opacity:1;fill:#92b63a;fill-opacity:1;fill-rule:nonzero;stroke:none;stroke-width:0.37041667;stroke-linecap:round;stroke-linejoin:bevel;stroke-miterlimit:4;stroke-dasharray:none;stroke-dashoffset:0;stroke-opacity:1"
       d="m 11.516756,276.06945 a 2.8266521,2.5096277 0 0 0 -2.7461205,1.92698 1.8695321,1.8695321 0 0 0 -1.80082,1.86712 1.8695321,1.8695321 0 0 0 1.86953,1.86952 1.8695321,1.8695321 0 0 0 1.5638605,-0.84795 2.8266521,2.5096277 0 0 0 1.11355,0.2036 2.8266521,2.5096277 0 0 0 2.82665,-2.50963 2.8266521,2.5096277 0 0 0 -2.82665,-2.50964 z"
       id="path4845-4"
       inkscape:connector-curvature="0" />
    <rect
       style="opacity:1;fill:#ffffff;fill-opacity:1;fill-rule:nonzero;stroke:none;stroke-width:0.37201211;stroke-linecap:round;stroke-linejoin:bevel;stroke-miterlimit:4;stroke-dasharray:none;stroke-dashoffset:0;stroke-opacity:0"
       id="rect4564-7-0-1-7"
       width="1.2848988"
       height="1.5738984"
       x="-116.59365"
       y="231.20615"
       transform="matrix(0.81520132,-0.57917769,0.46778929,0.88384002,0,0)" />
    <rect
       style="opacity:1;fill:#ffffff;fill-opacity:1;fill-rule:nonzero;stroke:none;stroke-width:0.37201211;stroke-linecap:round;stroke-linejoin:bevel;stroke-miterlimit:4;stroke-dasharray:none;stroke-dashoffset:0;stroke-opacity:0"
       id="rect4564-3-3-4-8"
       width="1.2848988"
       height="1.5738984"
       x="-116.48022"
       y="234.73064"
       transform="matrix(0.81520132,-0.57917769,0.46778929,0.88384002,0,0)" />
    <path
       style="fill:#9ccfe2;fill-opacity:1;stroke:none;stroke-width:0.26458332px;stroke-linecap:butt;stroke-linejoin:miter;stroke-opacity:1"
       d="m 10.876676,273.24815 3.4709,6.02486 3.2734,-1.70019 -3.10049,-7.22225 z"
       id="path4541-9-6-4-0"
       inkscape:connector-curvature="0" />
    <path
       style="fill:#82c2de;fill-opacity:1;stroke:none;stroke-width:0.26458332px;stroke-linecap:butt;stroke-linejoin:miter;stroke-opacity:1"
       d="m 14.520486,270.35057 2.17525,0.49838 2.05007,6.35027 -1.12483,0.3736 z"
       id="path4543-1-2-5-6"
       inkscape:connector-curvature="0" />
    <path
       style="fill:#dbdbdb;fill-opacity:1;stroke:none;stroke-width:0.26458332px;stroke-linecap:butt;stroke-linejoin:miter;stroke-opacity:1"
       d="m 14.101216,266.74962 3.29668,11.53841 6.84755,-1.83736 -3.24561,-12.93669 z"
       id="path4541-1"
       inkscape:connector-curvature="0"
       sodipodi:nodetypes="ccccc" />
    <path
       style="fill:#b3b3b1;fill-opacity:1;stroke:none;stroke-width:0.26458332px;stroke-linecap:butt;stroke-linejoin:miter;stroke-opacity:1"
       d="m 20.999836,263.51398 3.28773,1.77665 0.90654,11.4613 -1.93542,0.13196 z"
       id="path4543-0"
       inkscape:connector-curvature="0" />
    <g
       id="g5017-9-6"
       transform="matrix(0.03526519,0,0,0.03245942,62.934549,288.16828)"
       style="stroke-width:29.55673599">
      <path
         inkscape:connector-curvature="0"
         id="path4848-4-3"
         d="m -1411.4478,-883.38069 a 33.869553,33.869553 0 0 0 -32.9396,26.14362 40.307625,40.307625 0 0 0 -15.1717,-2.99 40.307625,40.307625 0 0 0 -40.1841,37.83749 19.727871,19.193333 0 0 0 -6.8548,-1.22163 19.727871,19.193333 0 0 0 -18.7379,13.23123 13.847941,13.472723 0 0 0 -1.8423,-0.13488 13.847941,13.472723 0 0 0 -12.5077,7.72873 10.662341,10.373439 0 0 0 -4.0412,-0.77979 10.662341,10.373439 0 0 0 -10.6623,10.37352 10.662341,10.373439 0 0 0 10.6623,10.37353 10.662341,10.373439 0 0 0 8.0641,-3.59617 13.847941,13.472723 0 0 0 8.4848,2.84583 13.847941,13.472723 0 0 0 10.3038,-4.49275 19.727871,19.193333 0 0 0 10.2764,2.83755 19.727871,19.193333 0 0 0 16.4113,-8.56175 40.307625,40.307625 0 0 0 30.6276,14.17433 40.307625,40.307625 0 0 0 26.1122,-9.66143 40.307625,40.307625 0 0 0 16.384,3.51452 40.307625,40.307625 0 0 0 33.8914,-18.56631 33.869553,33.869553 0 0 0 8.0791,1.01957 33.869553,33.869553 0 0 0 6.3355,-0.6227 33.869553,33.869553 0 0 0 28.8159,16.11995 33.869553,33.869553 0 0 0 27.2923,-13.87564 20.262411,20.262411 0 0 0 13.9072,5.55987 20.262411,20.262411 0 0 0 20.2623,-20.26233 20.262411,20.262411 0 0 0 -20.2623,-20.26233 20.262411,20.262411 0 0 0 -9.7177,2.50682 33.869553,33.869553 0 0 0 -21.7191,-19.95588 28.815035,26.676879 0 0 0 -27.818,-19.76004 28.815035,26.676879 0 0 0 -13.3315,3.04064 33.869553,33.869553 0 0 0 -3.7646,-0.22737 33.869553,33.869553 0 0 0 -9.2418,1.29501 33.869553,33.869553 0 0 0 -27.1136,-13.63121 z"
         style="opacity:1;fill:#ffffff;fill-opacity:1;fill-rule:nonzero;stroke:none;stroke-width:10.94830704;stroke-linecap:round;stroke-linejoin:bevel;stroke-miterlimit:4;stroke-dasharray:none;stroke-dashoffset:0;stroke-opacity:0" />
      <path
         inkscape:connector-curvature="0"
         id="path4848-2-7-2"
         d="m -1411.4478,-883.38069 a 33.869553,33.869553 0 0 0 -32.9396,26.14362 40.307625,40.307625 0 0 0 -15.1717,-2.99 40.307625,40.307625 0 0 0 -40.1841,37.83749 19.727871,19.193333 0 0 0 -6.8548,-1.22163 19.727871,19.193333 0 0 0 -18.7379,13.23123 13.847941,13.472723 0 0 0 -1.8423,-0.13488 13.847941,13.472723 0 0 0 -12.5077,7.72873 10.662341,10.373439 0 0 0 -4.0412,-0.77979 10.662341,10.373439 0 0 0 -10.6623,10.37352 10.662341,10.373439 0 0 0 10.6623,10.37353 10.662341,10.373439 0 0 0 8.0641,-3.59617 13.847941,13.472723 0 0 0 8.4848,2.84583 13.847941,13.472723 0 0 0 10.3038,-4.49275 19.727871,19.193333 0 0 0 10.2764,2.83755 19.727871,19.193333 0 0 0 16.4113,-8.56175 40.307625,40.307625 0 0 0 30.6276,14.17433 40.307625,40.307625 0 0 0 26.1122,-9.66143 40.307625,40.307625 0 0 0 16.384,3.51452 40.307625,40.307625 0 0 0 33.8914,-18.56631 33.869553,33.869553 0 0 0 8.0791,1.01957 33.869553,33.869553 0 0 0 6.3355,-0.6227 33.869553,33.869553 0 0 0 28.8159,16.11995 33.869553,33.869553 0 0 0 27.2923,-13.87564 20.262411,20.262411 0 0 0 13.9072,5.55987 20.262411,20.262411 0 0 0 20.2623,-20.26233 20.262411,20.262411 0 0 0 -20.2623,-20.26233 20.262411,20.262411 0 0 0 -9.7177,2.50682 33.869553,33.869553 0 0 0 -21.7191,-19.95588 28.815035,26.676879 0 0 0 -27.818,-19.76004 28.815035,26.676879 0 0 0 -13.3315,3.04064 33.869553,33.869553 0 0 0 -3.7646,-0.22737 33.869553,33.869553 0 0 0 -9.2418,1.29501 33.869553,33.869553 0 0 0 -27.1136,-13.63121 z"
         style="opacity:1;fill:url(#linearGradient4806);fill-opacity:1;fill-rule:nonzero;stroke:none;stroke-width:10.94830704;stroke-linecap:round;stroke-linejoin:bevel;stroke-miterlimit:4;stroke-dasharray:none;stroke-dashoffset:0;stroke-opacity:0" />
    </g>
    <rect
       style="opacity:1;fill:#ffffff;fill-opacity:1;fill-rule:nonzero;stroke:none;stroke-width:0.37144804;stroke-linecap:round;stroke-linejoin:bevel;stroke-miterlimit:4;stroke-dasharray:none;stroke-dashoffset:0;stroke-opacity:0"
       id="rect4564-0"
       width="1.842567"
       height="1.732619"
       x="-45.940556"
       y="259.59192"
       transform="matrix(0.94060126,-0.33951327,0.23870551,0.971092,0,0)" />
    <rect
       style="opacity:1;fill:#ffffff;fill-opacity:1;fill-rule:nonzero;stroke:none;stroke-width:0.37144804;stroke-linecap:round;stroke-linejoin:bevel;stroke-miterlimit:4;stroke-dasharray:none;stroke-dashoffset:0;stroke-opacity:0"
       id="rect4564-6-6"
       width="1.842567"
       height="1.732619"
       x="-48.977589"
       y="258.14297"
       transform="matrix(0.94060126,-0.33951327,0.23870551,0.971092,0,0)" />
    <rect
       style="opacity:1;fill:#ffffff;fill-opacity:1;fill-rule:nonzero;stroke:none;stroke-width:0.37144804;stroke-linecap:round;stroke-linejoin:bevel;stroke-miterlimit:4;stroke-dasharray:none;stroke-dashoffset:0;stroke-opacity:0"
       id="rect4564-7-1"
       width="1.842567"
       height="1.732619"
       x="-48.710178"
       y="261.88168"
       transform="matrix(0.94060126,-0.33951327,0.23870551,0.971092,0,0)" />
    <rect
       style="opacity:1;fill:#ffffff;fill-opacity:1;fill-rule:nonzero;stroke:none;stroke-width:0.37144804;stroke-linecap:round;stroke-linejoin:bevel;stroke-miterlimit:4;stroke-dasharray:none;stroke-dashoffset:0;stroke-opacity:0"
       id="rect4564-5-5"
       width="1.1332387"
       height="1.9958422"
       x="-45.761707"
       y="263.3501"
       transform="matrix(0.94060126,-0.33951327,0.23870551,0.971092,0,0)" />
    <rect
       style="opacity:1;fill:#ffffff;fill-opacity:1;fill-rule:nonzero;stroke:none;stroke-width:0.37144804;stroke-linecap:round;stroke-linejoin:bevel;stroke-miterlimit:4;stroke-dasharray:none;stroke-dashoffset:0;stroke-opacity:0"
       id="rect4564-3-5"
       width="1.842567"
       height="1.732619"
       x="-48.547459"
       y="265.7616"
       transform="matrix(0.94060126,-0.33951327,0.23870551,0.971092,0,0)" />
    <rect
       style="opacity:1;fill:#ffffff;fill-opacity:1;fill-rule:nonzero;stroke:none;stroke-width:0.37136573;stroke-linecap:round;stroke-linejoin:bevel;stroke-miterlimit:4;stroke-dasharray:none;stroke-dashoffset:0;stroke-opacity:0"
       id="rect4564-2-6-0-4"
       width="1.1272472"
       height="1.0038879"
       x="-116.87988"
       y="238.6017"
       transform="matrix(0.8340532,-0.55168402,0.46469769,0.8854694,0,0)" />
    <path
       style="fill:#ffffff;stroke:none;stroke-width:0.26458332px;stroke-linecap:butt;stroke-linejoin:miter;stroke-opacity:1"
       d="m 29.194396,260.02251 -0.0477,2.56166 1.88237,-0.23065 0.0602,-2.62415 z"
       id="path4547-5-7"
       inkscape:connector-curvature="0" />
    <path
       style="fill:#ffffff;stroke:none;stroke-width:0.26458332px;stroke-linecap:butt;stroke-linejoin:miter;stroke-opacity:1"
       d="m 26.983896,260.34186 -0.0477,2.56166 1.88237,-0.23064 0.0602,-2.62416 z"
       id="path4547-3-6-5"
       inkscape:connector-curvature="0" />
    <path
       sodipodi:type="star"
       style="opacity:1;fill:#ffffff;fill-opacity:1;fill-rule:nonzero;stroke:none;stroke-width:10.52007103;stroke-linecap:round;stroke-linejoin:bevel;stroke-miterlimit:4;stroke-dasharray:none;stroke-dashoffset:0;stroke-opacity:1"
       id="path4513-6-7-1-2-6"
       sodipodi:sides="4"
       sodipodi:cx="641.5824"
       sodipodi:cy="-123.6247"
       sodipodi:r1="16.903608"
       sodipodi:r2="2.9012835"
       sodipodi:arg1="0.60554466"
       sodipodi:arg2="1.3092845"
       inkscape:flatsided="false"
       inkscape:rounded="0"
       inkscape:randomized="0"
       d="m 655.48041,-114.003 -13.14791,-6.81906 -10.37181,11.09537 6.81907,-13.14791 -11.09538,-10.3718 13.14792,6.81906 10.3718,-11.09538 -6.81906,13.14792 z"
       inkscape:transform-center-y="-9.2929857e-06"
       transform="matrix(0.02982162,0.01007632,-0.00771135,0.03896756,-0.86488447,270.42361)" />
    <path
       style="fill:#df643a;fill-opacity:1;stroke:none;stroke-width:0.26458332px;stroke-linecap:butt;stroke-linejoin:miter;stroke-opacity:1"
       d="m 24.539416,259.66542 0.32696,16.91065 6.50052,0.15197 1.25163,-19.04396 z"
       id="path4541-9-9"
       inkscape:connector-curvature="0" />
    <path
       style="fill:#cc4736;fill-opacity:1;stroke:none;stroke-width:0.26458332px;stroke-linecap:butt;stroke-linejoin:miter;stroke-opacity:1"
       d="m 32.618526,257.68408 2.95403,3.58497 -2.14858,15.96192 -2.55148,-0.93107 z"
       id="path4543-1-3"
       inkscape:connector-curvature="0"
       sodipodi:nodetypes="ccccc" />
    <rect
       style="opacity:1;fill:#ffffff;fill-opacity:1;fill-rule:nonzero;stroke:none;stroke-width:0.37201214;stroke-linecap:round;stroke-linejoin:bevel;stroke-miterlimit:4;stroke-dasharray:none;stroke-dashoffset:0;stroke-opacity:0"
       id="rect4564-2-7"
       width="1.9938636"
       height="2.4423237"
       x="31.846531"
       y="265.81537"
       transform="matrix(0.99259852,-0.12144207,-0.00918906,0.99995778,0,0)" />
    <rect
       style="opacity:1;fill:#ffffff;fill-opacity:1;fill-rule:nonzero;stroke:none;stroke-width:0.37201214;stroke-linecap:round;stroke-linejoin:bevel;stroke-miterlimit:4;stroke-dasharray:none;stroke-dashoffset:0;stroke-opacity:0"
       id="rect4564-6-7-4"
       width="1.9938636"
       height="2.4423237"
       x="28.544361"
       y="264.41855"
       transform="matrix(0.99259852,-0.12144207,-0.00918906,0.99995778,0,0)" />
    <rect
       style="opacity:1;fill:#ffffff;fill-opacity:1;fill-rule:nonzero;stroke:none;stroke-width:0.37201214;stroke-linecap:round;stroke-linejoin:bevel;stroke-miterlimit:4;stroke-dasharray:none;stroke-dashoffset:0;stroke-opacity:0"
       id="rect4564-7-0-5"
       width="1.9938636"
       height="2.4423237"
       x="28.833714"
       y="269.68866"
       transform="matrix(0.99259852,-0.12144207,-0.00918906,0.99995778,0,0)" />
    <rect
       style="opacity:1;fill:#ffffff;fill-opacity:1;fill-rule:nonzero;stroke:none;stroke-width:0.37201214;stroke-linecap:round;stroke-linejoin:bevel;stroke-miterlimit:4;stroke-dasharray:none;stroke-dashoffset:0;stroke-opacity:0"
       id="rect4564-5-9-2"
       width="1.2262908"
       height="2.8133669"
       x="32.024311"
       y="271.75854"
       transform="matrix(0.99259852,-0.12144207,-0.00918906,0.99995778,0,0)" />
    <rect
       style="opacity:1;fill:#ffffff;fill-opacity:1;fill-rule:nonzero;stroke:none;stroke-width:0.37201214;stroke-linecap:round;stroke-linejoin:bevel;stroke-miterlimit:4;stroke-dasharray:none;stroke-dashoffset:0;stroke-opacity:0"
       id="rect4564-3-3-5"
       width="1.9938636"
       height="2.4423237"
       x="29.009815"
       y="275.15787"
       transform="matrix(0.99259852,-0.12144207,-0.00918906,0.99995778,0,0)" />
    <path
       style="fill:#ffffff;stroke:none;stroke-width:0.26458332px;stroke-linecap:butt;stroke-linejoin:miter;stroke-opacity:1"
       d="m 26.182436,266.62567 -0.042,1.63386 1.65722,-0.14711 0.053,-1.67372 z"
       id="path4547-5-6-4"
       inkscape:connector-curvature="0" />
    <path
       style="fill:#ffffff;stroke:none;stroke-width:0.26458332px;stroke-linecap:butt;stroke-linejoin:miter;stroke-opacity:1"
       d="m 24.236296,266.82936 -0.042,1.63386 1.65722,-0.14711 0.0529,-1.67372 z"
       id="path4547-3-6-0-74"
       inkscape:connector-curvature="0" />
    <path
       style="fill:#f4de7b;fill-opacity:1;stroke:none;stroke-width:0.26458332px;stroke-linecap:butt;stroke-linejoin:miter;stroke-opacity:1"
       d="m 22.084206,266.39792 0.28785,10.78579 5.72301,0.0969 1.10194,-12.14644 z"
       id="path4541-9-6-43"
       inkscape:connector-curvature="0" />
    <path
       style="fill:#dfaf4d;fill-opacity:1;stroke:none;stroke-width:0.26458332px;stroke-linecap:butt;stroke-linejoin:miter;stroke-opacity:1"
       d="m 29.197006,265.1342 2.60071,2.28653 -1.89159,10.18068 -2.2202,-0.60958 z"
       id="path4543-1-2-0"
       inkscape:connector-curvature="0"
       sodipodi:nodetypes="ccccc" />
    <rect
       style="opacity:1;fill:#ffffff;fill-opacity:1;fill-rule:nonzero;stroke:none;stroke-width:0.37136573;stroke-linecap:round;stroke-linejoin:bevel;stroke-miterlimit:4;stroke-dasharray:none;stroke-dashoffset:0;stroke-opacity:0"
       id="rect4564-2-6-7"
       width="1.7492254"
       height="1.5577999"
       x="27.250925"
       y="274.10635"
       transform="matrix(0.99609483,-0.08828982,-0.01268355,0.99991956,0,0)" />
    <rect
       style="opacity:1;fill:#ffffff;fill-opacity:1;fill-rule:nonzero;stroke:none;stroke-width:0.37136573;stroke-linecap:round;stroke-linejoin:bevel;stroke-miterlimit:4;stroke-dasharray:none;stroke-dashoffset:0;stroke-opacity:0"
       id="rect4564-6-7-1-8"
       width="1.7492254"
       height="1.5577999"
       x="26.809168"
       y="269.60013"
       transform="matrix(0.99609483,-0.08828982,-0.01268355,0.99991956,0,0)" />
    <rect
       style="opacity:1;fill:#ffffff;fill-opacity:1;fill-rule:nonzero;stroke:none;stroke-width:0.37136573;stroke-linecap:round;stroke-linejoin:bevel;stroke-miterlimit:4;stroke-dasharray:none;stroke-dashoffset:0;stroke-opacity:0"
       id="rect4564-7-0-8-68"
       width="1.7492254"
       height="1.5577999"
       x="27.079691"
       y="271.86404"
       transform="matrix(0.99609483,-0.08828982,-0.01268355,0.99991956,0,0)" />
    <rect
       style="opacity:1;fill:#ffffff;fill-opacity:1;fill-rule:nonzero;stroke:none;stroke-width:0.37136573;stroke-linecap:round;stroke-linejoin:bevel;stroke-miterlimit:4;stroke-dasharray:none;stroke-dashoffset:0;stroke-opacity:0"
       id="rect4564-5-9-7-8"
       width="1.0758303"
       height="1.7944642"
       x="29.862131"
       y="274.28183"
       transform="matrix(0.99609483,-0.08828982,-0.01268355,0.99991956,0,0)" />
    <rect
       style="opacity:1;fill:#ffffff;fill-opacity:1;fill-rule:nonzero;stroke:none;stroke-width:0.37136573;stroke-linecap:round;stroke-linejoin:bevel;stroke-miterlimit:4;stroke-dasharray:none;stroke-dashoffset:0;stroke-opacity:0"
       id="rect4564-3-3-9-4"
       width="1.7492254"
       height="1.5577999"
       x="27.217508"
       y="276.45001"
       transform="matrix(0.99609483,-0.08828982,-0.01268355,0.99991956,0,0)" />
    <rect
       style="opacity:1;fill:#ffffff;fill-opacity:1;fill-rule:nonzero;stroke:none;stroke-width:0.3708114;stroke-linecap:round;stroke-linejoin:bevel;stroke-miterlimit:4;stroke-dasharray:none;stroke-dashoffset:0;stroke-opacity:0"
       id="rect4564-7-0-2-3"
       width="1.6981125"
       height="1.5535349"
       x="65.112976"
       y="269.13647"
       transform="matrix(0.99867232,0.05151313,-0.11652026,0.99318832,0,0)" />
    <rect
       style="opacity:1;fill:#ffffff;fill-opacity:1;fill-rule:nonzero;stroke:none;stroke-width:0.3708114;stroke-linecap:round;stroke-linejoin:bevel;stroke-miterlimit:4;stroke-dasharray:none;stroke-dashoffset:0;stroke-opacity:0"
       id="rect4564-5-9-0-1"
       width="1.0443944"
       height="1.7895514"
       x="67.830284"
       y="270.45309"
       transform="matrix(0.99867232,0.05151313,-0.11652026,0.99318832,0,0)" />
    <rect
       style="opacity:1;fill:#ffffff;fill-opacity:1;fill-rule:nonzero;stroke:none;stroke-width:0.3708114;stroke-linecap:round;stroke-linejoin:bevel;stroke-miterlimit:4;stroke-dasharray:none;stroke-dashoffset:0;stroke-opacity:0"
       id="rect4564-3-3-2-4"
       width="1.6981125"
       height="1.5535349"
       x="65.262932"
       y="272.61536"
       transform="matrix(0.99867232,0.05151313,-0.11652026,0.99318832,0,0)" />
    <path
       style="fill:#ffffff;stroke:none;stroke-width:0.26458332px;stroke-linecap:butt;stroke-linejoin:miter;stroke-opacity:1"
       d="m 33.671036,270.9471 -0.14404,1.02895 1.41636,0.10847 0.15592,-1.05286 z"
       id="path4547-5-6-3-9"
       inkscape:connector-curvature="0" />
    <path
       style="fill:#ffffff;stroke:none;stroke-width:0.26458332px;stroke-linecap:butt;stroke-linejoin:miter;stroke-opacity:1"
       d="m 32.005726,270.83929 -0.14404,1.02897 1.41635,0.10846 0.15593,-1.05286 z"
       id="path4547-3-6-0-7-2"
       inkscape:connector-curvature="0" />
    <path
       style="fill:#9bd239;fill-opacity:1;stroke:none;stroke-width:0.26458332px;stroke-linecap:butt;stroke-linejoin:miter;stroke-opacity:1"
       d="m 30.207706,270.30447 -0.471,6.86135 4.85107,0.75745 1.74085,-7.55345 z"
       id="path4541-9-6-5-0"
       inkscape:connector-curvature="0" />
    <circle
       style="opacity:1;fill:#92b63a;fill-opacity:1;fill-rule:nonzero;stroke:none;stroke-width:0.37041667;stroke-linecap:round;stroke-linejoin:bevel;stroke-miterlimit:4;stroke-dasharray:none;stroke-dashoffset:0;stroke-opacity:1"
       id="path4850-6"
       cx="37.885136"
       cy="277.38162"
       r="2.2434385" />
    <path
       style="fill:#799e12;fill-opacity:1;stroke:none;stroke-width:0.26458332px;stroke-linecap:butt;stroke-linejoin:miter;stroke-opacity:1"
       d="m 36.328626,270.36982 2.05575,1.76348 -2.28072,6.21327 -1.75655,-0.90465 z"
       id="path4543-1-2-9-8"
       inkscape:connector-curvature="0"
       sodipodi:nodetypes="ccccc" />
    <circle
       style="opacity:1;fill:#92b63a;fill-opacity:1;fill-rule:nonzero;stroke:none;stroke-width:0.37041667;stroke-linecap:round;stroke-linejoin:bevel;stroke-miterlimit:4;stroke-dasharray:none;stroke-dashoffset:0;stroke-opacity:1"
       id="path4850-3-9"
       cx="42.216228"
       cy="277.56857"
       r="2.9289334" />
    <rect
       style="opacity:1;fill:#ffffff;fill-opacity:1;fill-rule:nonzero;stroke:none;stroke-width:0.37136573;stroke-linecap:round;stroke-linejoin:bevel;stroke-miterlimit:4;stroke-dasharray:none;stroke-dashoffset:0;stroke-opacity:0"
       id="rect4564-6-7-1-3-6"
       width="1.1272472"
       height="1.0038879"
       x="-117.16457"
       y="235.69775"
       transform="matrix(0.8340532,-0.55168402,0.46469769,0.8854694,0,0)" />
    <rect
       style="opacity:1;fill:#ffffff;fill-opacity:1;fill-rule:nonzero;stroke:none;stroke-width:0.37136573;stroke-linecap:round;stroke-linejoin:bevel;stroke-miterlimit:4;stroke-dasharray:none;stroke-dashoffset:0;stroke-opacity:0"
       id="rect4564-7-0-8-6-6"
       width="1.1272472"
       height="1.0038879"
       x="-116.99023"
       y="237.15672"
       transform="matrix(0.8340532,-0.55168402,0.46469769,0.8854694,0,0)" />
    <rect
       style="opacity:1;fill:#ffffff;fill-opacity:1;fill-rule:nonzero;stroke:none;stroke-width:0.3705709;stroke-linecap:round;stroke-linejoin:bevel;stroke-miterlimit:4;stroke-dasharray:none;stroke-dashoffset:0;stroke-opacity:0"
       id="rect4564-6-7-1-2-4"
       width="1.0807389"
       height="0.9923864"
       x="54.836418"
       y="269.45554"
       transform="matrix(0.99889464,0.04700535,-0.08771724,0.99614541,0,0)" />
    <rect
       style="opacity:1;fill:#ffffff;fill-opacity:1;fill-rule:nonzero;stroke:none;stroke-width:0.37060395;stroke-linecap:round;stroke-linejoin:bevel;stroke-miterlimit:4;stroke-dasharray:none;stroke-dashoffset:0;stroke-opacity:0"
       id="rect4564-3-3-9-7-9"
       width="1.4934998"
       height="0.99075317"
       x="64.196526"
       y="272.41629"
       transform="matrix(0.99707288,0.07645703,-0.12119703,0.99262847,0,0)" />
    <rect
       style="opacity:1;fill:#ffffff;fill-opacity:1;fill-rule:nonzero;stroke:none;stroke-width:0.3705709;stroke-linecap:round;stroke-linejoin:bevel;stroke-miterlimit:4;stroke-dasharray:none;stroke-dashoffset:0;stroke-opacity:0"
       id="rect4564-6-7-1-2-3-5"
       width="1.0807389"
       height="0.9923864"
       x="56.22171"
       y="270.32452"
       transform="matrix(0.99889464,0.04700535,-0.08771724,0.99614541,0,0)" />
    <rect
       style="opacity:1;fill:#ffffff;fill-opacity:1;fill-rule:nonzero;stroke:none;stroke-width:0.3705709;stroke-linecap:round;stroke-linejoin:bevel;stroke-miterlimit:4;stroke-dasharray:none;stroke-dashoffset:0;stroke-opacity:0"
       id="rect4564-6-7-1-2-6-0"
       width="1.0807389"
       height="0.9923864"
       x="57.799255"
       y="269.53909"
       transform="matrix(0.99889464,0.04700535,-0.08771724,0.99614541,0,0)" />
    <rect
       style="opacity:1;fill:#ffffff;fill-opacity:1;fill-rule:nonzero;stroke:none;stroke-width:0.3705709;stroke-linecap:round;stroke-linejoin:bevel;stroke-miterlimit:4;stroke-dasharray:none;stroke-dashoffset:0;stroke-opacity:0"
       id="rect4564-6-7-1-2-1-4"
       width="1.0807389"
       height="0.9923864"
       x="54.997185"
       y="272.42917"
       transform="matrix(0.99889464,0.04700535,-0.08771724,0.99614541,0,0)" />
    <rect
       style="opacity:1;fill:#ffffff;fill-opacity:1;fill-rule:nonzero;stroke:none;stroke-width:0.3705709;stroke-linecap:round;stroke-linejoin:bevel;stroke-miterlimit:4;stroke-dasharray:none;stroke-dashoffset:0;stroke-opacity:0"
       id="rect4564-6-7-1-2-2-8"
       width="1.0807389"
       height="0.9923864"
       x="56.465996"
       y="272.45181"
       transform="matrix(0.99889464,0.04700535,-0.08771724,0.99614541,0,0)" />
    <rect
       style="opacity:1;fill:#ffffff;fill-opacity:1;fill-rule:nonzero;stroke:none;stroke-width:0.3705709;stroke-linecap:round;stroke-linejoin:bevel;stroke-miterlimit:4;stroke-dasharray:none;stroke-dashoffset:0;stroke-opacity:0"
       id="rect4564-6-7-1-2-9-7"
       width="1.0807389"
       height="0.9923864"
       x="57.795448"
       y="270.88757"
       transform="matrix(0.99889464,0.04700535,-0.08771724,0.99614541,0,0)" />
    <rect
       style="opacity:1;fill:#ffffff;fill-opacity:1;fill-rule:nonzero;stroke:none;stroke-width:0.37136573;stroke-linecap:round;stroke-linejoin:bevel;stroke-miterlimit:4;stroke-dasharray:none;stroke-dashoffset:0;stroke-opacity:0"
       id="rect4564-5-9-7-3-1"
       width="1.0758303"
       height="1.7944642"
       x="29.676111"
       y="271.2598"
       transform="matrix(0.99609483,-0.08828982,-0.01268355,0.99991956,0,0)" />
    <rect
       style="opacity:1;fill:#ffffff;fill-opacity:1;fill-rule:nonzero;stroke:none;stroke-width:0.37136573;stroke-linecap:round;stroke-linejoin:bevel;stroke-miterlimit:4;stroke-dasharray:none;stroke-dashoffset:0;stroke-opacity:0"
       id="rect4564-5-9-7-1-7"
       width="0.69329375"
       height="1.1564006"
       x="-115.19714"
       y="238.71478"
       transform="matrix(0.8340532,-0.55168402,0.46469769,0.8854694,0,0)" />
    <rect
       style="opacity:1;fill:#ffffff;fill-opacity:1;fill-rule:nonzero;stroke:none;stroke-width:0.37136573;stroke-linecap:round;stroke-linejoin:bevel;stroke-miterlimit:4;stroke-dasharray:none;stroke-dashoffset:0;stroke-opacity:0"
       id="rect4564-3-3-9-0-2"
       width="1.1272472"
       height="1.0038879"
       x="-116.90142"
       y="240.11203"
       transform="matrix(0.8340532,-0.55168402,0.46469769,0.8854694,0,0)" />
    <rect
       style="opacity:1;fill:#ffffff;fill-opacity:1;fill-rule:nonzero;stroke:none;stroke-width:0.37136573;stroke-linecap:round;stroke-linejoin:bevel;stroke-miterlimit:4;stroke-dasharray:none;stroke-dashoffset:0;stroke-opacity:0"
       id="rect4564-5-9-7-3-6-7"
       width="0.69329375"
       height="1.1564006"
       x="-115.31704"
       y="236.76732"
       transform="matrix(0.8340532,-0.55168402,0.46469769,0.8854694,0,0)" />
    <path
       style="opacity:1;fill:#9fd053;fill-opacity:1;fill-rule:evenodd;stroke:none;stroke-width:0.27393457;stroke-linecap:round;stroke-linejoin:bevel;stroke-miterlimit:4;stroke-dasharray:none;stroke-dashoffset:0;stroke-opacity:1"
       d="m 47.264775,280.95447 c -0.655352,-0.31521 -1.311765,-0.62551 -1.974167,-0.90554 -1.629252,-0.68878 -3.278405,-1.27214 -4.938341,-1.75473 -1.659932,-0.48258 -3.330748,-0.86417 -5.004338,-1.14998 -1.673593,-0.2858 -3.349883,-0.47528 -5.020109,-0.57372 -1.67023,-0.0984 -3.334641,-0.10551 -4.984481,-0.026 -1.64984,0.0795 -3.285023,0.24523 -4.897453,0.4933 -1.612432,0.24809 -3.2022,0.57813 -4.760198,0.98534 -1.557999,0.40722 -3.084414,0.89192 -4.570956,1.44887 -1.4865446,0.55694 -2.9328371,1.18665 -4.3309036,1.88391 -1.3980665,0.69725 -2.7480525,1.46229 -4.0406186,2.29045 -0.1306662,0.0837 -0.2443149,0.18476 -0.3738069,0.26976 0.8266227,0.44523 1.6490874,0.84804 2.4677093,1.20951 0.8246272,0.36411 1.6451246,0.68715 2.4612846,0.97203 0.81616,0.28488 1.6282372,0.53139 2.4355855,0.7428 0.8073477,0.2114 1.6099427,0.38758 2.4081337,0.53129 0.798191,0.1437 1.591993,0.25513 2.380682,0.33689 0.78869,0.0817 1.572636,0.13397 2.35148,0.15957 0.778842,0.0256 1.552455,0.0247 2.321106,0 1.537302,-0.0496 3.053712,-0.19445 4.548179,-0.41098 1.494465,-0.21651 2.967308,-0.50491 4.416178,-0.84221 1.448869,-0.33729 2.873731,-0.72351 4.274247,-1.13541 2.801031,-0.82381 5.50303,-1.75046 8.094085,-2.59568 1.295528,-0.42262 2.563423,-0.82481 3.802318,-1.18354 1.00195,-0.29011 1.971113,-0.52494 2.934384,-0.74596 z"
       id="path4918"
       inkscape:connector-curvature="0" />
    <path
       style="opacity:1;fill:#84be3b;fill-opacity:1;fill-rule:evenodd;stroke:none;stroke-width:1.03534329;stroke-linecap:round;stroke-linejoin:bevel;stroke-miterlimit:4;stroke-dasharray:none;stroke-dashoffset:0;stroke-opacity:1"
       d="m 186.44727,123.89062 c -1.25928,0.0298 -2.45762,-0.11364 -3.74219,-0.0156 -3.7364,0.28511 -7.57921,0.84633 -11.52344,1.61328 -3.94423,0.76696 -7.98998,1.7393 -12.13281,2.8457 -4.14283,1.10641 -8.38264,2.34692 -12.71485,3.6504 -8.66442,2.60694 -17.69983,5.46501 -27.0664,8.00585 -4.68329,1.27043 -9.44799,2.46165 -14.29297,3.50196 -4.84498,1.04031 -9.770128,1.92985 -14.767579,2.59765 -4.997451,0.66781 -10.06829,1.11467 -15.208984,1.26758 -2.570347,0.0765 -5.157291,0.079 -7.761719,0 -2.604428,-0.079 -5.225926,-0.24 -7.863281,-0.49219 -2.637355,-0.25218 -5.291808,-0.59585 -7.960938,-1.03906 -2.669129,-0.44321 -5.352984,-0.98664 -8.052734,-1.63867 -2.69975,-0.65203 -5.415314,-1.41237 -8.144531,-2.29102 -2.729217,-0.87864 -5.472938,-1.87498 -8.230469,-2.99804 -2.757531,-1.12306 -5.527808,-2.37254 -8.3125,-3.75782 -2.784692,-1.38527 -5.583832,-2.90697 -8.394531,-4.57226 -2.5714818,-1.52356 -5.1557212,-3.20241 -7.7480471,-4.97461 v 24.49609 c 0,20.14147 16.2159591,36.35743 36.3574221,36.35743 H 150.08984 c 20.14147,0 36.35743,-16.21596 36.35743,-36.35743 z"
       id="path4915"
       transform="matrix(0.26458333,0,0,0.26458333,0,247)"
       inkscape:connector-curvature="0"
       sodipodi:nodetypes="csccccsccscsscscscssssc" />
  </g>
</svg>
